<?xml version="1.0" encoding="UTF-8" standalone="no"?><svg xmlns="http://www.w3.org/2000/svg" xmlns:xlink="http://www.w3.org/1999/xlink" clip-rule="evenodd" stroke-miterlimit="4.00" viewBox="0 0 1024 768"><desc>SVG generated by Keynote</desc><defs></defs><g transform="matrix(1.00, 0.00, -0.00, -1.00, 0.0, 768.0)"><path d="M 0.0 768.0 L 1024.0 768.0 L 1024.0 0.0 L 0.0 0.0 Z M 0.0 768.0 " fill="#212121"></path><path d="M 0.0 0.0 L 528.0 0.0 " fill="none" stroke="#A6AAA8" stroke-width="3.00" transform="matrix(1.00, 0.00, 0.00, -1.00, 464.0, 284.5)"></path><g><clipPath id="clip-1"><path d="M 0.0 768.0 L 432.0 768.0 L 432.0 0.0 L 0.0 0.0 Z M 0.0 768.0 "></path></clipPath><g clip-path="url(#clip-1)"><image xlink:href="../../530E9AF0-43D7-4833-AF5F-F344C0C97C42/assets/0E7DD69EF0CCC290B0359BB4A052EDC7.jpeg" width="516.00" height="768.00" transform="matrix(1.00, 0.00, -0.00, -1.00, -42.0, 768.0)"></image></g></g><text xml:space="preserve" font-family="DINCondensed-Bold" font-weight="bold" font-size="102.0" fill="#34A4DA" transform="matrix(1.00, 0.00, -0.00, -1.00, 468.0, 186.0)">O</text><text xml:space="preserve" font-family="DINCondensed-Bold" font-weight="bold" font-size="102.0" fill="#34A4DA" transform="matrix(1.00, 0.00, -0.00, -1.00, 511.5, 186.0)">U</text><text xml:space="preserve" font-family="DINCondensed-Bold" font-weight="bold" font-size="102.0" fill="#34A4DA" transform="matrix(1.00, 0.00, -0.00, -1.00, 554.9, 186.0)">T</text><text xml:space="preserve" font-family="DINCondensed-Bold" font-weight="bold" font-size="102.0" fill="#34A4DA" transform="matrix(1.00, 0.00, -0.00, -1.00, 588.8, 186.0)"> </text><text xml:space="preserve" font-family="DINCondensed-Bold" font-weight="bold" font-size="102.0" fill="#34A4DA" transform="matrix(1.00, 0.00, -0.00, -1.00, 607.7, 186.0)">O</text><text xml:space="preserve" font-family="DINCondensed-Bold" font-weight="bold" font-size="102.0" fill="#34A4DA" transform="matrix(1.00, 0.00, -0.00, -1.00, 651.2, 186.0)">F</text><text xml:space="preserve" font-family="DINCondensed-Bold" font-weight="bold" font-size="102.0" fill="#34A4DA" transform="matrix(1.00, 0.00, -0.00, -1.00, 688.9, 186.0)"> </text><text xml:space="preserve" font-family="DINCondensed-Bold" font-weight="bold" font-size="102.0" fill="#34A4DA" transform="matrix(1.00, 0.00, -0.00, -1.00, 707.9, 186.0)">M</text><text xml:space="preserve" font-family="DINCondensed-Bold" font-weight="bold" font-size="102.0" fill="#34A4DA" transform="matrix(1.00, 0.00, -0.00, -1.00, 764.6, 186.0)">Y</text><text xml:space="preserve" font-family="DINCondensed-Bold" font-weight="bold" font-size="102.0" fill="#34A4DA" transform="matrix(1.00, 0.00, -0.00, -1.00, 804.2, 186.0)"> </text><text xml:space="preserve" font-family="DINCondensed-Bold" font-weight="bold" font-size="102.0" fill="#34A4DA" transform="matrix(1.00, 0.00, -0.00, -1.00, 468.0, 84.0)">M</text><text xml:space="preserve" font-family="DINCondensed-Bold" font-weight="bold" font-size="102.0" fill="#34A4DA" transform="matrix(1.00, 0.00, -0.00, -1.00, 524.7, 84.0)">I</text><text xml:space="preserve" font-family="DINCondensed-Bold" font-weight="bold" font-size="102.0" fill="#34A4DA" transform="matrix(1.00, 0.00, -0.00, -1.00, 545.5, 84.0)">N</text><text xml:space="preserve" font-family="DINCondensed-Bold" font-weight="bold" font-size="102.0" fill="#34A4DA" transform="matrix(1.00, 0.00, -0.00, -1.00, 590.8, 84.0)">D</text><text xml:space="preserve" font-family="DINAlternate-Bold" font-weight="bold" font-size="54.0" fill="#A6AAA9" transform="matrix(1.00, 0.00, -0.00, -1.00, 468.0, 306.0)">S</text><text xml:space="preserve" font-family="DINAlternate-Bold" font-weight="bold" font-size="54.0" fill="#A6AAA9" transform="matrix(1.00, 0.00, -0.00, -1.00, 499.0, 306.0)">H</text><text xml:space="preserve" font-family="DINAlternate-Bold" font-weight="bold" font-size="54.0" fill="#A6AAA9" transform="matrix(1.00, 0.00, -0.00, -1.00, 533.9, 306.0)">A</text><text xml:space="preserve" font-family="DINAlternate-Bold" font-weight="bold" font-size="54.0" fill="#A6AAA9" transform="matrix(1.00, 0.00, -0.00, -1.00, 566.9, 306.0)">R</text><text xml:space="preserve" font-family="DINAlternate-Bold" font-weight="bold" font-size="54.0" fill="#A6AAA9" transform="matrix(1.00, 0.00, -0.00, -1.00, 599.8, 306.0)">O</text><text xml:space="preserve" font-family="DINAlternate-Bold" font-weight="bold" font-size="54.0" fill="#A6AAA9" transform="matrix(1.00, 0.00, -0.00, -1.00, 632.7, 306.0)">N</text><text xml:space="preserve" font-family="DINAlternate-Bold" font-weight="bold" font-size="54.0" fill="#A6AAA9" transform="matrix(1.00, 0.00, -0.00, -1.00, 669.6, 306.0)"> </text><text xml:space="preserve" font-family="DINAlternate-Bold" font-weight="bold" font-size="54.0" fill="#A6AAA9" transform="matrix(1.00, 0.00, -0.00, -1.00, 682.5, 306.0)">D</text><text xml:space="preserve" font-family="DINAlternate-Bold" font-weight="bold" font-size="54.0" fill="#A6AAA9" transform="matrix(1.00, 0.00, -0.00, -1.00, 716.5, 306.0)">R</text><text xml:space="preserve" font-family="DINAlternate-Bold" font-weight="bold" font-size="54.0" fill="#A6AAA9" transform="matrix(1.00, 0.00, -0.00, -1.00, 749.5, 306.0)">A</text><text xml:space="preserve" font-family="DINAlternate-Bold" font-weight="bold" font-size="54.0" fill="#A6AAA9" transform="matrix(1.00, 0.00, -0.00, -1.00, 782.4, 306.0)">P</text><text xml:space="preserve" font-family="DINAlternate-Bold" font-weight="bold" font-size="54.0" fill="#A6AAA9" transform="matrix(1.00, 0.00, -0.00, -1.00, 814.4, 306.0)">E</text><text xml:space="preserve" font-family="DINAlternate-Bold" font-weight="bold" font-size="54.0" fill="#A6AAA9" transform="matrix(1.00, 0.00, -0.00, -1.00, 844.4, 306.0)">R</text><text xml:space="preserve" font-family="AvenirNext-Medium" font-size="30.0" fill="#838686" transform="matrix(1.00, 0.00, -0.00, -1.00, 647.0, 129.0)">R</text><text xml:space="preserve" font-family="AvenirNext-Medium" font-size="30.0" fill="#838686" transform="matrix(1.00, 0.00, -0.00, -1.00, 665.1, 129.0)">e</text><text xml:space="preserve" font-family="AvenirNext-Medium" font-size="30.0" fill="#838686" transform="matrix(1.00, 0.00, -0.00, -1.00, 682.1, 129.0)">a</text><text xml:space="preserve" font-family="AvenirNext-Medium" font-size="30.0" fill="#838686" transform="matrix(1.00, 0.00, -0.00, -1.00, 698.3, 129.0)">l</text><text xml:space="preserve" font-family="AvenirNext-Medium" font-size="30.0" fill="#838686" transform="matrix(1.00, 0.00, -0.00, -1.00, 706.1, 129.0)">i</text><text xml:space="preserve" font-family="AvenirNext-Medium" font-size="30.0" fill="#838686" transform="matrix(1.00, 0.00, -0.00, -1.00, 713.9, 129.0)">s</text><text xml:space="preserve" font-family="AvenirNext-Medium" font-size="30.0" fill="#838686" transform="matrix(1.00, 0.00, -0.00, -1.00, 727.2, 129.0)">t</text><text xml:space="preserve" font-family="AvenirNext-Medium" font-size="30.0" fill="#838686" transform="matrix(1.00, 0.00, -0.00, -1.00, 737.1, 129.0)">i</text><text xml:space="preserve" font-family="AvenirNext-Medium" font-size="30.0" fill="#838686" transform="matrix(1.00, 0.00, -0.00, -1.00, 744.9, 129.0)">c</text><text xml:space="preserve" font-family="AvenirNext-Medium" font-size="30.0" fill="#838686" transform="matrix(1.00, 0.00, -0.00, -1.00, 759.7, 129.0)"> </text><text xml:space="preserve" font-family="AvenirNext-Medium" font-size="30.0" fill="#838686" transform="matrix(1.00, 0.00, -0.00, -1.00, 767.2, 129.0)">F</text><text xml:space="preserve" font-family="AvenirNext-Medium" font-size="30.0" fill="#838686" transform="matrix(1.00, 0.00, -0.00, -1.00, 783.7, 129.0)">i</text><text xml:space="preserve" font-family="AvenirNext-Medium" font-size="30.0" fill="#838686" transform="matrix(1.00, 0.00, -0.00, -1.00, 791.5, 129.0)">c</text><text xml:space="preserve" font-family="AvenirNext-Medium" font-size="30.0" fill="#838686" transform="matrix(1.00, 0.00, -0.00, -1.00, 806.3, 129.0)">t</text><text xml:space="preserve" font-family="AvenirNext-Medium" font-size="30.0" fill="#838686" transform="matrix(1.00, 0.00, -0.00, -1.00, 816.1, 129.0)">i</text><text xml:space="preserve" font-family="AvenirNext-Medium" font-size="30.0" fill="#838686" transform="matrix(1.00, 0.00, -0.00, -1.00, 823.9, 129.0)">o</text><text xml:space="preserve" font-family="AvenirNext-Medium" font-size="30.0" fill="#838686" transform="matrix(1.00, 0.00, -0.00, -1.00, 842.2, 129.0)">n</text><text xml:space="preserve" font-family="AvenirNext-Medium" font-size="20.0" fill="#838686" transform="matrix(1.00, 0.00, -0.00, -1.00, 650.0, 99.0)">P</text><text xml:space="preserve" font-family="AvenirNext-Medium" font-size="20.0" fill="#838686" transform="matrix(1.00, 0.00, -0.00, -1.00, 661.0, 99.0)">u</text><text xml:space="preserve" font-family="AvenirNext-Medium" font-size="20.0" fill="#838686" transform="matrix(1.00, 0.00, -0.00, -1.00, 672.7, 99.0)">b</text><text xml:space="preserve" font-family="AvenirNext-Medium" font-size="20.0" fill="#838686" transform="matrix(1.00, 0.00, -0.00, -1.00, 685.4, 99.0)">l</text><text xml:space="preserve" font-family="AvenirNext-Medium" font-size="20.0" fill="#838686" transform="matrix(1.00, 0.00, -0.00, -1.00, 690.6, 99.0)">i</text><text xml:space="preserve" font-family="AvenirNext-Medium" font-size="20.0" fill="#838686" transform="matrix(1.00, 0.00, -0.00, -1.00, 695.8, 99.0)">s</text><text xml:space="preserve" font-family="AvenirNext-Medium" font-size="20.0" fill="#838686" transform="matrix(1.00, 0.00, -0.00, -1.00, 704.6, 99.0)">h</text><text xml:space="preserve" font-family="AvenirNext-Medium" font-size="20.0" fill="#838686" transform="matrix(1.00, 0.00, -0.00, -1.00, 716.3, 99.0)">e</text><text xml:space="preserve" font-family="AvenirNext-Medium" font-size="20.0" fill="#838686" transform="matrix(1.00, 0.00, -0.00, -1.00, 727.8, 99.0)">d</text><text xml:space="preserve" font-family="AvenirNext-Medium" font-size="20.0" fill="#838686" transform="matrix(1.00, 0.00, -0.00, -1.00, 740.5, 99.0)"> </text><text xml:space="preserve" font-family="AvenirNext-Medium" font-size="20.0" fill="#838686" transform="matrix(1.00, 0.00, -0.00, -1.00, 745.5, 99.0)">a</text><text xml:space="preserve" font-family="AvenirNext-Medium" font-size="20.0" fill="#838686" transform="matrix(1.00, 0.00, -0.00, -1.00, 756.1, 99.0)">t</text><text xml:space="preserve" font-family="AvenirNext-Medium" font-size="20.0" fill="#838686" transform="matrix(1.00, 0.00, -0.00, -1.00, 762.7, 99.0)"> </text><text xml:space="preserve" font-family="AvenirNext-Medium" font-size="20.0" fill="#838686" transform="matrix(1.00, 0.00, -0.00, -1.00, 767.7, 99.0)">M</text><text xml:space="preserve" font-family="AvenirNext-Medium" font-size="20.0" fill="#838686" transform="matrix(1.00, 0.00, -0.00, -1.00, 785.8, 99.0)">a</text><text xml:space="preserve" font-family="AvenirNext-Medium" font-size="20.0" fill="#838686" transform="matrix(1.00, 0.00, -0.00, -1.00, 796.6, 99.0)">r</text><text xml:space="preserve" font-family="AvenirNext-Medium" font-size="20.0" fill="#838686" transform="matrix(1.00, 0.00, -0.00, -1.00, 803.5, 99.0)">c</text><text xml:space="preserve" font-family="AvenirNext-Medium" font-size="20.0" fill="#838686" transform="matrix(1.00, 0.00, -0.00, -1.00, 813.4, 99.0)">h</text><text xml:space="preserve" font-family="AvenirNext-Medium" font-size="20.0" fill="#838686" transform="matrix(1.00, 0.00, -0.00, -1.00, 825.0, 99.0)"> </text><text xml:space="preserve" font-family="AvenirNext-Medium" font-size="20.0" fill="#838686" transform="matrix(1.00, 0.00, -0.00, -1.00, 830.0, 99.0)">9</text><text xml:space="preserve" font-family="AvenirNext-Medium" font-size="20.0" fill="#838686" transform="matrix(1.00, 0.00, -0.00, -1.00, 841.9, 99.0)">,</text><text xml:space="preserve" font-family="AvenirNext-Medium" font-size="20.0" fill="#838686" transform="matrix(1.00, 0.00, -0.00, -1.00, 846.5, 99.0)"> </text><text xml:space="preserve" font-family="AvenirNext-Medium" font-size="20.0" fill="#838686" transform="matrix(1.00, 0.00, -0.00, -1.00, 851.5, 99.0)">2</text><text xml:space="preserve" font-family="AvenirNext-Medium" font-size="20.0" fill="#838686" transform="matrix(1.00, 0.00, -0.00, -1.00, 863.4, 99.0)">0</text><text xml:space="preserve" font-family="AvenirNext-Medium" font-size="20.0" fill="#838686" transform="matrix(1.00, 0.00, -0.00, -1.00, 875.3, 99.0)">1</text><text xml:space="preserve" font-family="AvenirNext-Medium" font-size="20.0" fill="#838686" transform="matrix(1.00, 0.00, -0.00, -1.00, 887.2, 99.0)">0</text></g></svg>